# xmcd
#
# Track frame offsets: 
#        150
#        14012
#        27255
#        40705
#        52285
#        63972
#        78932
#        92480
#        103442
#        117815
#        128510
#        138252
#        149350
#        161107
#        170582
#        181027
#        193012
#        204320
#        214760
#        226562
#        227315
#        239355
#        241687
#
# Disc length: 3243 seconds
#
# Revision: 2
# Processed by: cddbd v1.5.2PL0 Copyright (c) Steve Scherf et al.
# Submitted via: ExactAudioCopyFreeDBPlugin 1.0
#
DISCID=2d0ca917
DTITLE=Young Jessie - I'm Gone
DYEAR=1900
DGENRE=Rhythm and Blues
TTITLE0=Young Jessie with Maxwell Davis and Orchestra - Mary Lou
TTITLE1=Lonesome Desert
TTITLE2=The Hunters - Rabbit on a Log
TTITLE3=Young Jessie with Maxwell Davis and Orchestra - Don't Think I Wi
TTITLE3=ll
TTITLE4=Well Baby
TTITLE5=Nothing Seems Right
TTITLE6=The Hunters - Down at Hayden's
TTITLE7=I Smell a Rat
TTITLE8=Young Jessie with The Flairs - Why Do I Love You
TTITLE9=Pretty Soon
TTITLE10=Oochie Coochie
TTITLE11=Don't Happen No More
TTITLE12=Hit, Git and Split [take 1]
TTITLE13=Here Comes Henry
TTITLE14=Hot Dog
TTITLE15=Do You Love Me [alt. take]
TTITLE16=Well Baby [alt. take]
TTITLE17=Pretty Soon [take 2]
TTITLE18=Do You Love Me
TTITLE19="This is Young Jessie"
TTITLE20=Hit, Git and Split
TTITLE21=I Hear You Knockin'
TTITLE22=Maybelline
EXTD=
EXTT0=
EXTT1=
EXTT2=
EXTT3=
EXTT4=
EXTT5=
EXTT6=
EXTT7=
EXTT8=
EXTT9=
EXTT10=
EXTT11=
EXTT12=
EXTT13=
EXTT14=
EXTT15=
EXTT16=
EXTT17=
EXTT18=
EXTT19=
EXTT20=
EXTT21=
EXTT22=
PLAYORDER=
